<?xml version="1.0" encoding="utf-8"?>
<!-- Generator: Adobe Illustrator 24.0.1, SVG Export Plug-In . SVG Version: 6.00 Build 0)  -->
<svg version="1.1" id="Capa_1" xmlns="http://www.w3.org/2000/svg" xmlns:xlink="http://www.w3.org/1999/xlink" x="0px" y="0px"
	 viewBox="0 0 230 230" style="enable-background:new 0 0 230 230;" xml:space="preserve">
<style type="text/css">
	.st0{fill:#FFFFFF;}
</style>
<g>
	<polygon class="st0" points="116.2,51.4 136.2,31.4 116.2,11.3 124.1,3.4 152.1,31.4 124.1,59.3 	"/>
	<path class="st0" d="M104.4,25.6L90.2,11.3l7.9-7.9l28,28l-28,27.9l-7.9-7.9L105,36.6c-38.8,5-69,38.2-69,78.4
		c0,43.6,35.4,79,79,79s79-35.4,79-79c0-18.7-6.5-35.9-17.5-49.4l8.6-6.9c12.5,15.4,19.9,35,19.9,56.3c0,49.7-40.3,90-90,90
		s-90-40.3-90-90C25,68.9,59.7,30.9,104.4,25.6z"/>
</g>
</svg>
