<?xml version="1.0" encoding="utf-8"?>
<!-- Generator: Adobe Illustrator 24.0.1, SVG Export Plug-In . SVG Version: 6.00 Build 0)  -->
<svg version="1.1" id="Calque_1" xmlns="http://www.w3.org/2000/svg" xmlns:xlink="http://www.w3.org/1999/xlink" x="0px" y="0px"
	 viewBox="0 0 130 130" style="enable-background:new 0 0 130 130;" xml:space="preserve">
<style type="text/css">
	.st0{fill:#FFFFFF;}
</style>
<path class="st0" d="M77.1,15h21.7c1.4,0,2.4,1.1,2.4,2.4v95.1c0,1.4-1.1,2.4-2.4,2.4H77.1c-1.4,0-2.4-1.1-2.4-2.4V17.4
	C74.6,16.1,75.7,15,77.1,15z"/>
<path class="st0" d="M31.2,15h21.7c1.4,0,2.4,1.1,2.4,2.4v95.1c0,1.4-1.1,2.4-2.4,2.4H31.2c-1.4,0-2.4-1.1-2.4-2.4V17.4
	C28.8,16.1,29.9,15,31.2,15z"/>
</svg>
