<?xml version="1.0" encoding="utf-8"?>
<!-- Generator: Adobe Illustrator 24.0.1, SVG Export Plug-In . SVG Version: 6.00 Build 0)  -->
<svg version="1.1" id="Calque_1" xmlns="http://www.w3.org/2000/svg" xmlns:xlink="http://www.w3.org/1999/xlink" x="0px" y="0px"
	 viewBox="0 0 76 76" style="enable-background:new 0 0 76 76;" xml:space="preserve">
<style type="text/css">
	.st0{fill:url(#SVGID_1_);}
	.st1{fill:url(#SVGID_2_);}
</style>
<g>
	
		<linearGradient id="SVGID_1_" gradientUnits="userSpaceOnUse" x1="2.3336" y1="719.8789" x2="77.8783" y2="787.9144" gradientTransform="matrix(1 0 0 1 0 -714)">
		<stop  offset="0.1065" style="stop-color:#FFFFFF"/>
		<stop  offset="1" style="stop-color:#D57EEA"/>
	</linearGradient>
	<path class="st0" d="M38,0C17,0,0,17,0,38s17,38,38,38s38-17,38-38S59,0,38,0z M38,68.4C21.2,68.4,7.6,54.8,7.6,38S21.2,7.6,38,7.6
		S68.4,21.2,68.4,38S54.8,68.4,38,68.4z"/>
	
		<linearGradient id="SVGID_2_" gradientUnits="userSpaceOnUse" x1="1.7253" y1="720.5544" x2="77.27" y2="788.5898" gradientTransform="matrix(1 0 0 1 0 -714)">
		<stop  offset="0.1065" style="stop-color:#FFFFFF"/>
		<stop  offset="1" style="stop-color:#D57EEA"/>
	</linearGradient>
	<path class="st1" d="M46.9,55.1c8.8-5.1,11.8-16.3,6.7-25c-2.4-4.1-6.2-7.1-10.7-8.4c0,0-0.1-1.2-0.3-2.6c-0.1-1.4-1.3-1.8-2.7-0.9
		l-7.7,5.6c-1.3,1-1.2,2.3,0.3,2.9l8.7,3.9c1.5,0.7,2.6,0.2,2.5-1l-0.2-2.2c2.3,1.1,4.3,2.9,5.7,5.2c3.6,6.3,1.5,14.4-4.8,18
		s-14.4,1.5-18-4.8c-1.1-2-1.8-4.2-1.8-6.5c0-1.4-1.2-2.6-2.6-2.6s-2.6,1.2-2.6,2.6c0,3.2,0.9,6.3,2.5,9.1
		C26.9,57.2,38.1,60.2,46.9,55.1z"/>
</g>
</svg>
