<?xml version="1.0" encoding="utf-8"?>
<!-- Generator: Adobe Illustrator 24.0.1, SVG Export Plug-In . SVG Version: 6.00 Build 0)  -->
<svg version="1.1" id="Capa_1" xmlns="http://www.w3.org/2000/svg" xmlns:xlink="http://www.w3.org/1999/xlink" x="0px" y="0px"
	 viewBox="0 0 230 230" style="enable-background:new 0 0 230 230;" xml:space="preserve">
<style type="text/css">
	.st0{fill:#FFFFFF;}
</style>
<g>
	<polygon class="st0" points="113.8,51.4 93.8,31.4 113.8,11.3 105.9,3.4 77.9,31.4 105.9,59.3 	"/>
	<path class="st0" d="M125.6,25.6l14.2-14.3l-7.9-7.9l-28,28l28,27.9l7.9-7.9L125,36.6c38.8,5,69,38.2,69,78.4c0,43.6-35.4,79-79,79
		s-79-35.4-79-79c0-18.7,6.5-35.9,17.5-49.4l-8.6-6.9C32.4,74.1,25,93.7,25,115c0,49.7,40.3,90,90,90s90-40.3,90-90
		C205,68.9,170.3,30.9,125.6,25.6z"/>
</g>
</svg>
