<svg width="50" height="50" viewBox="0 0 50 50" fill="none" xmlns="http://www.w3.org/2000/svg">
<path d="M34 16H16V34H34V16Z" fill="url(#paint0_linear)"/>
<path fill-rule="evenodd" clip-rule="evenodd" d="M0 25C0 11.2 11.2 0 25 0C38.8 0 50 11.2 50 25C50 38.8 38.8 50 25 50C11.2 50 0 38.8 0 25ZM5 25C5 36.025 13.975 45 25 45C36.025 45 45 36.025 45 25C45 13.975 36.025 5 25 5C13.975 5 5 13.975 5 25Z" fill="url(#paint1_linear)"/>
<defs>
<linearGradient id="paint0_linear" x1="6.09376" y1="-1.19391" x2="55.7942" y2="43.5663" gradientUnits="userSpaceOnUse">
<stop offset="0.106474" stop-color="white"/>
<stop offset="1" stop-color="#D57EEA"/>
</linearGradient>
<linearGradient id="paint1_linear" x1="6.09376" y1="-1.19391" x2="55.7942" y2="43.5663" gradientUnits="userSpaceOnUse">
<stop offset="0.106474" stop-color="white"/>
<stop offset="1" stop-color="#D57EEA"/>
</linearGradient>
</defs>
</svg>
