<?xml version="1.0" encoding="utf-8"?>
<!-- Generator: Adobe Illustrator 24.0.3, SVG Export Plug-In . SVG Version: 6.00 Build 0)  -->
<svg version="1.1" id="c9110790-68f5-421a-bd61-01bf55405315"
	 xmlns="http://www.w3.org/2000/svg" xmlns:xlink="http://www.w3.org/1999/xlink" x="0px" y="0px" viewBox="0 0 247.1 225.3"
	 style="enable-background:new 0 0 247.1 225.3;" xml:space="preserve">
<style type="text/css">
	.st0{fill:#D57EEA;}
	.st1{opacity:0.1;enable-background:new    ;}
</style>
<path class="st0" d="M246.8,72.6v0.6c0,0.2,0,0.3,0,0.5s0,0.4,0,0.6c0,0.5,0,1-0.1,1.5v0.3c0,0.4,0,0.9-0.1,1.3v0.4
	c0,0.1,0,0.1,0,0.2c0,0.4-0.1,0.8-0.1,1.2s-0.1,0.6-0.1,0.9c-0.1,0.8-0.2,1.5-0.3,2.3c-0.1,0.5-0.2,1-0.2,1.5V84
	c0,0.2-0.1,0.5-0.1,0.8s0,0.3-0.1,0.4s0,0.3-0.1,0.4s-0.1,0.5-0.2,0.8s-0.1,0.5-0.2,0.8s-0.1,0.4-0.1,0.6s-0.2,0.7-0.2,1
	c0,0,0,0,0,0.1l-0.2,0.7l-0.2,0.8c-0.1,0.3-0.2,0.7-0.3,1c0,0.1,0,0.2-0.1,0.3l-0.3,1c-0.3,1.1-0.7,2.1-1,3.2l-0.4,1l-0.2,0.6
	c-2.4,6.3-5.7,12.2-9.8,17.5c-0.2,0.3-0.5,0.7-0.8,1c-1.9,2.5-4,4.8-6.2,7l-102,102.3L21.2,123.1c-2.9-2.9-5.6-6.1-8-9.5
	c-1.5-2.1-2.9-4.4-4.2-6.6C2.1,94.5-1,80.2,0.3,65.9c0.1-1.3,0.3-2.6,0.4-3.9C1,59.7,1.5,57.4,2,55.1c0.1-0.5,0.2-0.9,0.4-1.4
	c0.1-0.2,0.1-0.5,0.2-0.7s0.1-0.3,0.1-0.4l0.3-1l0,0l0,0c0.2-0.8,0.5-1.6,0.7-2.4l0.4-1.1c0.5-1.5,1.1-3,1.8-4.5l0.4-0.9
	c0.2-0.4,0.4-0.9,0.6-1.3c0.3-0.7,0.7-1.4,1-2.2L8,39l0,0l0,0c0.2-0.3,0.3-0.6,0.5-1l0.6-1.1c0.2-0.5,0.5-0.9,0.8-1.3
	c0.1-0.2,0.2-0.4,0.4-0.6s0.2-0.2,0.2-0.4c0,0,0,0,0-0.1l0,0c0.2-0.3,0.3-0.5,0.5-0.8s0.4-0.6,0.6-0.9c0.4-0.7,0.8-1.3,1.3-1.9
	l0.5-0.7l0.6-0.8c0.2-0.3,0.4-0.6,0.6-0.8l0.8-1c0.2-0.3,0.5-0.6,0.7-0.9l0.2-0.3l0.5-0.6c0.3-0.3,0.5-0.6,0.8-0.9l0.4-0.4l0.1-0.1
	l0.6-0.7l0.7-0.8c0.6-0.7,1.3-1.4,2-2l0.8-0.8l1.2-1.2c0.3-0.2,0.5-0.5,0.8-0.7s0.6-0.6,1-0.9l0.6-0.5c0.2-0.2,0.4-0.4,0.6-0.5
	c0.4-0.4,0.9-0.7,1.3-1l0.7-0.5c1.1-0.8,2.2-1.7,3.3-2.4l0.7-0.5l0.7-0.5l0.7-0.4l1-0.6l0.5-0.3L36,9.7c0.9-0.5,1.9-1.1,2.8-1.6
	l0.6-0.3l0.9-0.5L41,6.9l0.7-0.3l0.7-0.3L43.1,6l0.6-0.3c1-0.4,2-0.8,3-1.2l0.7-0.4l0.8-0.3l0.7-0.2l0.6-0.2L50.9,3l0.7-0.2l0.6-0.2
	l0.6-0.2c0.3-0.1,0.7-0.2,1-0.3l1.3-0.3c1.4-0.3,2.7-0.6,4.1-0.9l0.6-0.1l0.8-0.1l0.8-0.1l1-0.1L63,0.4c1.3-0.2,2.6-0.3,4-0.4h0.7
	h0.4h0.6l0,0h0.5h0.2h0.7h0.8h3.2h0.8h0.7h0.2h0.5h0.1c0.3,0,0.7,0,1,0.1h0.1h0.6c1.1,0.1,2.1,0.2,3.2,0.3l1.4,0.2l1,0.1l0.8,0.1
	l0.8,0.1L85.8,1c1.4,0.3,2.7,0.5,4.1,0.9l1.7,0.4l0.5,0.1l0.7,0.2c0.5,0.1,0.9,0.3,1.4,0.4l0.6,0.2c1,0.3,2,0.6,3,1l0.7,0.2l0.9,0.3
	l1.3,0.5c0.5,0.2,1,0.4,1.5,0.7l0.6,0.3l0.8,0.4l0.7,0.3l0.7,0.4l0.9,0.5l0.7,0.4c0.6,0.3,1.1,0.6,1.7,0.9l0.7,0.4
	c0.8,0.5,1.6,1,2.4,1.5l0.7,0.4l0.7,0.5l0.7,0.5l0,0l0.5,0.3c1,0.7,1.9,1.4,2.8,2.1l0.7,0.5c0.4,0.3,0.9,0.7,1.3,1
	c0.2,0.2,0.4,0.3,0.6,0.5l0.6,0.5l1,0.9c0.3,0.2,0.5,0.5,0.8,0.7l1.2,1.2l0.8,0.8l0.8-0.8l1.2-1.2c0.3-0.2,0.5-0.5,0.8-0.7
	s0.6-0.6,1-0.9l0.6-0.5c0.2-0.2,0.4-0.4,0.6-0.5c0.4-0.4,0.9-0.7,1.3-1l0.7-0.5c1.1-0.8,2.2-1.7,3.3-2.4l0.7-0.5l0.7-0.5l0.7-0.4
	l1-0.6l0.5-0.3l0.7-0.4c0.9-0.5,1.9-1.1,2.8-1.6l0.6-0.3l0.9-0.5l0.7-0.4l0.7-0.3l0.7-0.3l0.7-0.3l0.7-0.3c1-0.4,2-0.8,3-1.2
	c0.2-0.1,0.5-0.2,0.7-0.3l0.8-0.3l0.7-0.2l0.6-0.2l1.4-0.4l0.7-0.2l0.6-0.2l0.6-0.2c0.3-0.1,0.7-0.2,1-0.3l1.3-0.3
	c1.4-0.3,2.7-0.6,4.1-0.9l0.6-0.1l0.8-0.1l0.8-0.1l1-0.1l0.6-0.1c1.3-0.2,2.6-0.3,4-0.4h0.7h0.4h0.6l0,0h0.5h0.2h0.7h0.8h3.2h0.8
	h0.7h0.2h0.5l0,0c0.3,0,0.7,0,1,0.1h0.1h0.6c1.1,0.1,2.1,0.2,3.2,0.3l1.4,0.2l1,0.1l0.8,0.1l0.8,0.1l0.5,0.1
	c1.4,0.3,2.7,0.5,4.1,0.9l1.7,0.4l0.5,0.1l0.7,0.2c0.5,0.1,0.9,0.3,1.4,0.4l0.6,0.2c1,0.3,2,0.6,3,1l0.7,0.2l0.9,0.3l1.3,0.5
	c0.5,0.2,1,0.4,1.5,0.7l0.6,0.3l0.8,0.4l0.7,0.3l0.7,0.4l0.9,0.5l0.7,0.4c0.5,0.3,1.1,0.6,1.7,0.9l0.7,0.4c0.8,0.5,1.6,1,2.4,1.5
	l0.7,0.4l0.7,0.5l0.7,0.5l0,0l0.5,0.3c1,0.7,1.9,1.4,2.8,2.1l0.7,0.5c0.4,0.3,0.9,0.7,1.3,1c0.2,0.2,0.4,0.3,0.6,0.5l0.6,0.5
	l0.8,0.7c0.3,0.2,0.6,0.5,0.8,0.8l0.5,0.4l0,0c0,0,0,0,0.1,0.1c0.3,0.2,0.5,0.5,0.8,0.8l0.4,0.3c0.1,0.2,0.3,0.3,0.4,0.4l0.8,0.8
	c0.4,0.4,0.8,0.8,1.2,1.3c0.2,0.2,0.5,0.5,0.7,0.7c0.4,0.4,0.8,0.8,1.1,1.3l1.2,1.4c1.3,1.7,2.6,3.4,3.8,5.1l0.5,0.7
	c0.2,0.3,0.3,0.5,0.5,0.8l0.4,0.7c0.2,0.4,0.5,0.8,0.7,1.2l0.6,1.1c0.1,0.2,0.3,0.4,0.4,0.7l0.3,0.5l0.3,0.5l0.4,0.8l0.4,0.8
	c0.9,1.8,1.8,3.7,2.6,5.6l0.3,0.8c0.3,0.8,0.6,1.6,0.9,2.4l0.2,0.7c0.1,0.3,0.2,0.7,0.3,1s0.2,0.6,0.3,0.9l0.2,0.6
	c0.1,0.3,0.2,0.6,0.2,0.8s0.2,0.7,0.3,1c0.2,0.6,0.3,1.1,0.4,1.7l0.2,0.9c0.1,0.4,0.2,0.8,0.3,1.3c0,0.2,0.1,0.4,0.1,0.5
	s0.1,0.5,0.1,0.7s0.1,0.4,0.1,0.6l0.1,0.5c0,0.2,0,0.3,0.1,0.4s0,0.3,0.1,0.4l0.2,0.9c0,0.3,0.1,0.6,0.1,0.9s0.1,0.7,0.1,1
	s0.1,0.6,0.1,1l0.1,0.6c0,0.3,0.1,0.7,0.1,1c0,0.2,0,0.3,0,0.5c0,0.3,0.1,0.7,0.1,1c0,0,0,0,0,0.1c0,0.2,0,0.4,0,0.6v0.7
	c0,0.4,0,0.7,0,1.1l0,0c0,0.4,0,0.7,0,1.1C246.9,71.2,246.9,71.9,246.8,72.6z"/>
<path class="st1" d="M246.8,72.6v0.6c0,0.2,0,0.3,0,0.5s0,0.4,0,0.6c0,0.5,0,1-0.1,1.5v0.3c0,0.4,0,0.9-0.1,1.3v0.4
	c0,0.1,0,0.1,0,0.2c0,0.4-0.1,0.8-0.1,1.2s-0.1,0.6-0.1,0.9c-0.1,0.8-0.2,1.5-0.3,2.3c-0.1,0.5-0.2,1-0.2,1.5V84
	c0,0.2-0.1,0.5-0.1,0.8s0,0.3-0.1,0.4s0,0.3-0.1,0.4s-0.1,0.5-0.2,0.8s-0.1,0.5-0.2,0.8s-0.1,0.4-0.1,0.6s-0.2,0.7-0.2,1
	c0,0,0,0,0,0.1l-0.2,0.7l-0.2,0.8c-0.1,0.3-0.2,0.7-0.3,1c0,0.1,0,0.2-0.1,0.3l-0.3,1c-0.3,1.1-0.7,2.1-1,3.2l-0.4,1l-0.2,0.6
	c7.2-30.1-5.4-61.4-31.5-78c-1.3-0.8-2.6-1.6-3.9-2.3c-28.2-15.5-63.3-10.5-86,12.4c-2.7-2.7-5.7-5.2-8.8-7.5l0,0
	c-2.4-1.7-4.9-3.3-7.5-4.7c-21.7-11.9-47.9-11.9-69.6,0c-3.6,2-7.1,4.3-10.3,6.9c-5.3,4.3-10.1,9.2-14,14.8c-1.4,2-2.8,4.1-4,6.3
	v0.1c-1.1,2-2.2,4.1-3.1,6.2C3,52.9,2.5,54,2,55.2c0.1-0.5,0.2-0.9,0.4-1.4c0.1-0.2,0.1-0.5,0.2-0.7s0.1-0.3,0.1-0.4l0.3-1l0,0
	c0.2-0.8,0.5-1.6,0.7-2.4l0.4-1.1c0.5-1.5,1.1-3,1.8-4.5l0.4-0.9c0.2-0.4,0.4-0.9,0.6-1.3c0.3-0.7,0.7-1.4,1-2.2L8,39.1l0,0l0,0
	c0.2-0.3,0.3-0.6,0.5-1L9.1,37c0.2-0.5,0.5-0.9,0.8-1.3c0.1-0.2,0.2-0.4,0.4-0.6s0.2-0.2,0.2-0.4c0,0,0,0,0-0.1l0,0
	c0.2-0.3,0.3-0.5,0.5-0.8s0.4-0.6,0.6-0.9c0.4-0.7,0.8-1.3,1.3-1.9l0.5-0.7l0.6-0.8c0.2-0.3,0.4-0.6,0.6-0.8l0.8-1
	c0.2-0.3,0.5-0.6,0.7-0.9l0.2-0.3l0.5-0.6c0.3-0.3,0.5-0.6,0.8-0.9l0.4-0.4l0.1-0.1l0.6-0.7l0.7-0.8c0.6-0.7,1.3-1.4,2-2l0.8-0.8
	l1.2-1.2c0.3-0.2,0.5-0.5,0.8-0.7s0.6-0.6,1-0.9l0.6-0.5c0.2-0.2,0.4-0.4,0.6-0.5c0.4-0.4,0.9-0.7,1.3-1l0.7-0.5
	c1.1-0.8,2.2-1.7,3.3-2.4l0.7-0.5l0.7-0.5l0.7-0.4l1-0.6l0.5-0.3L36,9.8c0.9-0.5,1.9-1.1,2.8-1.6l0.6-0.3l0.9-0.5L41,7l0.7-0.3
	l0.7-0.3l0.7-0.3l0.6-0.4c1-0.4,2-0.8,3-1.2l0.7-0.4l0.8-0.3l0.7-0.2l0.6-0.2L50.9,3l0.7-0.2l0.6-0.2l0.6-0.2c0.3-0.1,0.7-0.2,1-0.3
	l1.3-0.3c1.4-0.3,2.7-0.6,4.1-0.9l0.6-0.1l0.8-0.1l0.8-0.1l1-0.1L63,0.4c1.3-0.2,2.6-0.3,4-0.4h0.7h0.4h0.6l0,0h0.5h0.2h0.7h0.8h3.2
	h0.8h0.7h0.2h0.5h0.1c0.3,0,0.7,0,1,0.1h0.1h0.6c1.1,0.1,2.1,0.2,3.2,0.3l1.4,0.2l1,0.1l0.8,0.1l0.8,0.1L85.8,1
	c1.4,0.3,2.7,0.5,4.1,0.9l1.7,0.4l0.5,0.1l0.7,0.2c0.5,0.1,0.9,0.3,1.4,0.4l0.6,0.2c1,0.3,2,0.6,3,1l0.7,0.2l0.9,0.3l1.3,0.5
	c0.5,0.2,1,0.4,1.5,0.7l0.6,0.3l0.8,0.4l0.7,0.3l0.7,0.4l0.9,0.5l0.7,0.4c0.6,0.3,1.1,0.6,1.7,0.9l0.7,0.4c0.8,0.5,1.6,1,2.4,1.5
	l0.7,0.4l0.7,0.5l0.7,0.5l0,0l0.5,0.3c1,0.7,1.9,1.4,2.8,2.1l0.7,0.5c0.4,0.3,0.9,0.7,1.3,1c0.2,0.2,0.4,0.3,0.6,0.5l0.6,0.5l1,0.9
	c0.3,0.2,0.5,0.5,0.8,0.7l1.2,1.2l0.8,0.8l0.8-0.8l1.2-1.2c0.3-0.2,0.5-0.5,0.8-0.7s0.6-0.6,1-0.9l0.6-0.5c0.2-0.2,0.4-0.4,0.6-0.5
	c0.4-0.4,0.9-0.7,1.3-1l0.7-0.5c1.1-0.8,2.2-1.7,3.3-2.4l0.7-0.5l0.7-0.5l0.7-0.4l1-0.6l0.5-0.3l0.7-0.4c0.9-0.5,1.9-1.1,2.8-1.6
	l0.6-0.3l0.9-0.5l0.7-0.4l0.7-0.3l0.7-0.3l0.7-0.3l0.7-0.3c1-0.4,2-0.8,3-1.2c0.2-0.1,0.5-0.2,0.7-0.3l0.8-0.3l0.7-0.2l0.6-0.2
	l1.4-0.4l0.7-0.2l0.6-0.2l0.6-0.2c0.3-0.1,0.7-0.2,1-0.3l1.3-0.3c1.4-0.3,2.7-0.6,4.1-0.9l0.6-0.1l0.8-0.1l0.8-0.1l1-0.1l0.6-0.1
	c1.3-0.2,2.6-0.3,4-0.4h0.7h0.4h0.6l0,0h0.5h0.2h0.7h0.8h3.2h0.8h0.7h0.2h0.5l0,0c0.3,0,0.7,0,1,0.1h0.1h0.6
	c1.1,0.1,2.1,0.2,3.2,0.3l1.4,0.2l1,0.1l0.8,0.1l0.8,0.1l0.5,0.1c1.4,0.3,2.7,0.5,4.1,0.9l1.7,0.4l0.5,0.1l0.7,0.2
	c0.5,0.1,0.9,0.3,1.4,0.4l0.6,0.2c1,0.3,2,0.6,3,1l0.7,0.2l0.9,0.3l1.3,0.5c0.5,0.2,1,0.4,1.5,0.7l0.6,0.3l0.8,0.4l0.7,0.3l0.7,0.4
	l0.9,0.5l0.7,0.4c0.5,0.3,1.1,0.6,1.7,0.9l0.7,0.4c0.8,0.5,1.6,1,2.4,1.5l0.7,0.4l0.7,0.5l0.7,0.5l0,0l0.5,0.3
	c1,0.7,1.9,1.4,2.8,2.1l0.7,0.5c0.4,0.3,0.9,0.7,1.3,1c0.2,0.2,0.4,0.3,0.6,0.5l0.6,0.5l0.8,0.7c0.3,0.2,0.6,0.5,0.8,0.8l0.5,0.4
	l0,0c0,0,0,0,0.1,0.1c0.3,0.2,0.5,0.5,0.8,0.8l0.4,0.3c0.1,0.2,0.3,0.3,0.4,0.4l0.8,0.8c0.4,0.4,0.8,0.8,1.2,1.3
	c0.2,0.2,0.5,0.5,0.7,0.7c0.4,0.4,0.8,0.8,1.1,1.3l1.2,1.4c1.3,1.7,2.6,3.4,3.8,5.1l0.5,0.7c0.2,0.3,0.3,0.5,0.5,0.8l0.4,0.7
	c0.2,0.4,0.5,0.8,0.7,1.2l0.6,1.1c0.1,0.2,0.3,0.4,0.4,0.7l0.3,0.5l0.3,0.5l0.4,0.8l0.4,0.8c0.9,1.8,1.8,3.7,2.6,5.6l0.3,0.8
	c0.3,0.8,0.6,1.6,0.9,2.4l0.2,0.7c0.1,0.3,0.2,0.7,0.3,1s0.2,0.6,0.3,0.9l0.2,0.6c0.1,0.3,0.2,0.6,0.2,0.8s0.2,0.7,0.3,1
	c0.2,0.6,0.3,1.1,0.4,1.7l0.2,0.9c0.1,0.4,0.2,0.8,0.3,1.3c0,0.2,0.1,0.4,0.1,0.5s0.1,0.5,0.1,0.7s0.1,0.4,0.1,0.6l0.1,0.5
	c0,0.2,0,0.3,0.1,0.4s0,0.3,0.1,0.4l0.2,0.9c0,0.3,0.1,0.6,0.1,0.9s0.1,0.7,0.1,1s0.1,0.6,0.1,1l0.1,0.6c0,0.3,0.1,0.7,0.1,1
	c0,0.2,0,0.3,0,0.5c0,0.3,0.1,0.7,0.1,1c0,0,0,0,0,0.1c0,0.2,0,0.4,0,0.6v0.7c0,0.4,0,0.7,0,1.1l0,0c0,0.4,0,0.7,0,1.1
	C246.9,71.2,246.9,71.9,246.8,72.6z"/>
</svg>
