<?xml version="1.0" encoding="utf-8"?>
<!-- Generator: Adobe Illustrator 24.1.2, SVG Export Plug-In . SVG Version: 6.00 Build 0)  -->
<svg version="1.1" id="Calque_1" xmlns="http://www.w3.org/2000/svg" xmlns:xlink="http://www.w3.org/1999/xlink" x="0px" y="0px"
	 viewBox="0 0 460.9 361.9" style="enable-background:new 0 0 460.9 361.9;" xml:space="preserve">
<style type="text/css">
	.st0{fill:url(#SVGID_1_);}
	.st1{display:none;fill:none;stroke:#FFFFFF;}
</style>
<linearGradient id="SVGID_1_" gradientUnits="userSpaceOnUse" x1="-1.1917" y1="673.0986" x2="488.6553" y2="637.9567" gradientTransform="matrix(1 0 0 1 0 -478.6331)">
	<stop  offset="0.1065" style="stop-color:#FE6F61"/>
	<stop  offset="1" style="stop-color:#D57EEA"/>
</linearGradient>
<path class="st0" d="M3.6,81.6c9,31,24.1,60.8,41.6,88.9C186.6,395.3,352.5,363.6,370,356c40.9-18.5,78.3-54.2,77.7-106.3
	c0-35.7-35.6-158.6-132.3-155.2c-30.6,1.2-58.6,13.1-89.3,15.1s-66.3-5.7-91.5-31.5c-11.9-12.3-21.3-27.7-32.7-41.1
	C35.4-41.5-14,20,3.6,81.6z"/>
<path class="st1" d="M458.8,237.2L458.8,237.2c8.6,46.9-19.2,83.7-53.1,105.6c-14.4,8.9-158.4,58.5-320.6-127.6
	c-20.1-23.3-38.3-48.4-51.2-75.4C21.2,113.1,23.6,84.5,38,70.4c7.1-7,17.3-10.5,30.2-8.3s28.5,10,46.5,25.7l0,0
	c5.3,4.5,10.3,9.5,15.3,14.4c0.8,0.8,1.7,1.7,2.5,2.5c5.8,5.7,11.7,11.4,18.1,16.2l0,0c26.8,20.4,60.2,22.9,87.6,17.3
	c13.2-2.7,25.5-7.5,37.7-12.2c0.4-0.2,0.9-0.3,1.3-0.5c12.7-4.9,25.3-9.7,38.9-12.1c43-7.5,77.3,15.3,101.5,44.1
	C441.9,186.3,456,221.1,458.8,237.2z"/>
</svg>
