<?xml version="1.0" encoding="utf-8"?>
<!-- Generator: Adobe Illustrator 24.1.2, SVG Export Plug-In . SVG Version: 6.00 Build 0)  -->
<svg version="1.1" id="Calque_1" xmlns="http://www.w3.org/2000/svg" xmlns:xlink="http://www.w3.org/1999/xlink" x="0px" y="0px"
	 viewBox="0 0 390.2 275.4" style="enable-background:new 0 0 390.2 275.4;" xml:space="preserve">
<style type="text/css">
	.st0{fill:url(#SVGID_1_);}
	.st1{display:none;fill:none;stroke:#FFFFFF;}
</style>
<linearGradient id="SVGID_1_" gradientUnits="userSpaceOnUse" x1="95.1798" y1="826.4794" x2="329.4901" y2="535.6683" gradientTransform="matrix(1 0 0 1 0 -547.9357)">
	<stop  offset="0" style="stop-color:#64E8DE"/>
	<stop  offset="1" style="stop-color:#8A64E8"/>
</linearGradient>
<path class="st0" d="M9.7,174.5c10.1,11.6,25,16.2,39,18.4c40.8,5.2,84.2-9.2,123.7,1.6c23.5,6.6,43.7,21.6,63.4,37.1
	c11.5,9.2,23.2,17.9,35.9,24.2c16.5,7.7,80,32.3,95.8-49c10.2-49.4-8.8-99-36.4-133.2S264.8,17.8,225,6.4
	c-15.8-4.7-116.8-27.2-184.1,54C18.6,87.3-17.4,143.7,9.7,174.5z"/>
<path class="st1" d="M30,184.2L30,184.2c-13.3-15.2-11.2-36.7-2.8-58c8.4-21.2,22.9-42,34-55.5c33.6-40.5,75.5-55.1,111-59
	c35.6-3.9,64.7,2.9,72.5,5.3l0,0c39.7,11.4,78.3,33,105.8,67.1s46.4,83.6,36.3,132.8l0,0c-3.9,20.3-10.8,33.9-19.2,42.8
	c-8.3,8.9-18.2,13.2-28,14.7c-19.8,3-39.6-5-47.9-8.8c-12.6-6.2-24.2-14.9-35.8-24.1l0,0c-19.6-15.5-39.9-30.6-63.6-37.2l0,0
	c-19.8-5.4-40.6-4.6-61.5-3c-2.6,0.2-5.3,0.4-7.9,0.6c-18.3,1.5-36.6,2.9-54.3,0.7C54.7,200.2,40,195.7,30,184.2z"/>
</svg>
