<?xml version="1.0" encoding="utf-8"?>
<!-- Generator: Adobe Illustrator 24.0.1, SVG Export Plug-In . SVG Version: 6.00 Build 0)  -->
<svg version="1.1" id="Calque_1" xmlns="http://www.w3.org/2000/svg" xmlns:xlink="http://www.w3.org/1999/xlink" x="0px" y="0px"
	 viewBox="0 0 120.4 134.1" style="enable-background:new 0 0 120.4 134.1;" xml:space="preserve">
<style type="text/css">
	.st0{fill:#FFFFFF;}
	.st1{fill:none;stroke:#4E30C5;stroke-width:2;}
	.st2{fill:#DCB0FF;fill-opacity:0.5;}
</style>
<g>
	<path class="st0" d="M120.4,61.2c0,33.5-43.8,72.9-73.8,72.9S0,94.7,0,61.2C0,27.6,16.5,0,46.6,0S120.4,27.6,120.4,61.2z"/>
	<path class="st1" d="M119.4,61.2c0,16.4-10.7,34.3-25.3,48.3c-14.6,14-32.8,23.6-47.5,23.6c-14.6,0-25.9-9.5-33.7-23.4
		C5.1,95.9,1,77.8,1,61.2c0-16.6,4.1-31.7,11.8-42.6C20.5,7.8,31.9,1,46.6,1c14.8,0,33,6.8,47.6,17.8
		C108.7,29.8,119.4,44.9,119.4,61.2z"/>
</g>
<ellipse class="st2" cx="56.2" cy="57" rx="16" ry="16"/>
</svg>
