<svg xmlns="http://www.w3.org/2000/svg" viewBox="0 0 423 322" width="423" height="322">
	<defs>
		<linearGradient id="grd1" gradientUnits="userSpaceOnUse"  x1="427.151" y1="304.878" x2="-64.263" y2="233.8">
			<stop offset="0.106" stop-color="#fe6f61"  />
			<stop offset="1" stop-color="#d57eea"  />
		</linearGradient>
	</defs>
	<style>
		tspan { white-space:pre }
		.shp0 { fill: url(#grd1) } 
		.shp1 { fill: #ffffff } 
	</style>
	<path id="Layer" class="shp0" d="M422.47 246.48C419.63 218.56 410.26 191.97 398.13 166.92C299.41 -33.15 123.24 0.19 103.76 7.57C58.09 25.48 12.6 58.91 2.61 106.12C-4.74 138.54 6.61 249.05 106.22 243.31C137.79 241.35 168.87 229.82 200.65 227.16C232.43 224.5 267.25 230.55 287.75 253.26C297.4 264.07 303.86 277.83 312.83 289.6C364.78 358.99 427.91 301.86 422.47 246.48Z" />
	<g id="Layer" style="opacity: 0.102">
		<path id="Layer" class="shp1" d="M199.05 143.45L176.65 143.45L176.65 229.18L199.05 229.18L199.05 143.45Z" />
		<path id="Layer" class="shp1" d="M213.57 159.52C215.89 159.52 217.9 158.78 219.6 157.14C221.3 155.5 222.07 153.57 222.07 151.34C222.07 149.1 221.3 147.17 219.6 145.53C217.9 143.74 215.89 143 213.57 143C211.26 143 209.25 143.74 207.55 145.38C205.85 147.02 205.08 148.95 205.08 151.19C205.08 153.42 205.85 155.35 207.55 156.99C209.25 158.63 211.26 159.52 213.57 159.52Z" />
		<path id="Layer" class="shp1" d="M224.7 165.03L202.3 165.03L202.3 229.18L224.7 229.18L224.7 165.03Z" />
		<path id="Layer" class="shp1" d="M150.69 231.41C150.69 234.24 149.61 236.77 147.44 238.85C145.28 240.94 142.81 241.98 139.72 241.98C136.63 241.98 134.16 240.94 131.99 238.85C129.83 236.77 128.75 234.24 128.75 231.41L128.75 229.03L128.75 194.8C128.44 190.63 127.36 186.76 125.5 183.04C123.81 179.47 121.33 176.19 118.24 173.51C115.15 170.83 111.75 168.6 107.89 167.11C103.87 165.62 99.7 164.73 95.38 164.73C91.05 164.73 86.88 165.47 82.86 167.11C79 168.6 75.6 170.68 72.51 173.51C69.42 176.19 67.1 179.47 65.25 183.04C63.55 186.61 62.46 190.63 62.16 194.8L62 194.8L62 229.03L84.4 229.03L84.4 196.88C84.4 194.05 85.49 191.52 87.65 189.44C89.81 187.36 92.28 186.31 95.38 186.31C98.47 186.31 100.94 187.36 103.1 189.44C105.26 191.52 106.34 194.05 106.34 196.88L106.34 229.03L106.34 233.64C106.65 237.81 107.74 241.68 109.59 245.4C111.29 248.98 113.76 252.25 116.85 254.93C119.94 257.61 123.34 259.84 127.2 261.33C131.22 262.82 135.39 263.71 139.72 263.71C144.05 263.71 148.22 262.97 152.24 261.33C156.1 259.84 159.5 257.76 162.59 254.93C165.68 252.25 168 248.98 169.85 245.4C171.7 241.68 172.78 237.81 173.09 233.64L173.25 233.64L173.25 199.41L150.69 199.41L150.69 231.41Z" />
		<path id="Layer" class="shp1" d="M164.59 176.49C160.42 176.49 157.02 179.17 156.25 182.89L145.9 182.89C144.97 179.17 141.57 176.49 137.56 176.49C132.76 176.49 128.9 180.21 128.9 184.82C128.9 189.44 132.76 193.16 137.56 193.16C141.73 193.16 145.28 190.18 146.05 186.31L156.25 186.31C157.02 190.18 160.58 193.16 164.75 193.16C169.54 193.16 173.4 189.44 173.4 184.82C173.09 180.21 169.23 176.49 164.59 176.49Z" />
	</g>
</svg>