<svg xmlns="http://www.w3.org/2000/svg" viewBox="0 0 65 1029" width="65" height="1029">
	<style>
		tspan { white-space:pre }
		.shp0 { opacity: 0.459;fill: #ffffff } 
	</style>
	<path id="Layer" class="shp0" d="M53.19 1028.55L51.67 1025.07C57.56 1010.8 52.5 977.64 49 959.29C47.13 949.7 44.99 939.78 42.95 930.28C39.32 913.58 35.51 896.16 33.26 879.71C25.55 823.46 37.13 798.94 48.27 775.16C49.21 773.12 50.16 771.07 51.1 769.03C66.06 736.41 66.96 693.73 53.99 630.33C48.03 601.17 39.95 571.41 32.18 542.74C24.02 512.52 15.53 481.22 9.36 450.19C0.92 407.63 -1.11 371.47 2.89 336.04C6.52 304.1 12.9 279.42 19.64 253.31C20.55 249.89 21.42 246.35 22.34 242.93C28.85 217.41 29.74 192.87 25.07 165.95C22.92 153.4 19.46 140.27 16.11 127.55C13.61 118.04 11 108.12 8.9 98.32C-0.84 52.71 1.94 10.65 15.39 0.58L16.59 4.41C3.65 14.21 0.96 54.69 10.36 98.64C12.39 108.14 14.91 117.82 17.41 127.33C20.77 140.22 24.3 153.65 26.54 166.67C31.38 194.71 30.53 219.99 23.79 246.11C22.92 249.65 22.01 253.07 21.09 256.49C14.34 282.43 8.02 307.01 4.37 338.76C0.44 373.46 2.4 408.93 10.68 450.55C16.74 481.16 25.16 512.16 33.28 542.26C41.11 571.23 49.19 600.99 55.23 630.62C68.53 695.5 67.62 739.2 52.29 772.46C51.35 774.5 50.41 776.55 49.46 778.59C38.45 801.93 27.1 826.08 34.57 880.69C36.79 896.8 40.48 913.8 44.07 930.38C46.15 940.01 48.3 949.92 50.18 959.69C54.13 978.9 59.38 1013.34 53.19 1028.55Z" />
</svg>