<?xml version="1.0" encoding="utf-8"?>
<!-- Generator: Adobe Illustrator 24.0.3, SVG Export Plug-In . SVG Version: 6.00 Build 0)  -->
<svg version="1.1" id="Calque_1" xmlns="http://www.w3.org/2000/svg" xmlns:xlink="http://www.w3.org/1999/xlink" x="0px" y="0px"
	 viewBox="0 0 65 1029" style="enable-background:new 0 0 65 1029;" xml:space="preserve">
<style type="text/css">
	.st0{fill:#DCB0FF;enable-background:new    ;}
</style>
<path id="Layer" class="st0" d="M53.2,1028.6l-1.5-3.5c5.9-14.3,0.8-47.4-2.7-65.8c-1.9-9.6-4-19.5-6-29
	c-3.6-16.7-7.4-34.1-9.7-50.6c-7.7-56.2,3.9-80.8,15-104.6c0.9-2,1.9-4.1,2.8-6.1c15-32.6,15.9-75.3,2.9-138.7
	c-6-29.2-14-58.9-21.8-87.6c-8.2-30.2-16.7-61.5-22.8-92.5C0.9,407.6-1.1,371.5,2.9,336c3.6-31.9,10-56.6,16.8-82.7
	c0.9-3.4,1.8-7,2.7-10.4c6.5-25.5,7.4-50.1,2.7-77c-2.1-12.6-5.6-25.7-9-38.4c-2.5-9.5-5.1-19.4-7.2-29.2c-9.7-45.6-7-87.7,6.5-97.7
	l1.2,3.8C3.7,14.2,1,54.7,10.4,98.6c2,9.5,4.6,19.2,7.1,28.7c3.4,12.9,6.9,26.3,9.1,39.3c4.8,28,4,53.3-2.8,79.4
	c-0.9,3.5-1.8,7-2.7,10.4C14.3,282.4,8,307,4.4,338.8c-3.9,34.7-2,70.2,6.3,111.8c6.1,30.6,14.5,61.6,22.6,91.7
	c7.8,29,15.9,58.7,22,88.4c13.3,64.9,12.4,108.6-2.9,141.8c-0.9,2-1.9,4.1-2.8,6.1c-11,23.3-22.4,47.5-14.9,102.1
	c2.2,16.1,5.9,33.1,9.5,49.7c2.1,9.6,4.2,19.5,6.1,29.3C54.1,978.9,59.4,1013.3,53.2,1028.6z"/>
</svg>
