<?xml version="1.0" encoding="utf-8"?>
<!-- Generator: Adobe Illustrator 24.0.2, SVG Export Plug-In . SVG Version: 6.00 Build 0)  -->
<svg version="1.1" id="Capa_1" xmlns="http://www.w3.org/2000/svg" xmlns:xlink="http://www.w3.org/1999/xlink" x="0px" y="0px"
	 viewBox="0 0 512 512" style="enable-background:new 0 0 512 512;" xml:space="preserve">
<style type="text/css">
	.st0{fill:#FFFFFF;}
</style>
<g>
	<g>
		<path class="st0" d="M124.5,0h-35c-44.1,0-80,35.9-80,80v352c0,44.1,35.9,80,80,80h35c44.1,0,80-35.9,80-80V80
			C204.5,35.9,168.6,0,124.5,0z M164.5,432c0,22.1-17.9,40-40,40h-35c-22.1,0-40-17.9-40-40V80c0-22.1,17.9-40,40-40h35
			c22.1,0,40,17.9,40,40V432z"/>
	</g>
</g>
<g>
	<g>
		<path class="st0" d="M482.5,352c11,0,20-9,20-20V80c0-44.1-35.9-80-80-80h-34c-44.1,0-80,35.9-80,80v352c0,44.1,35.9,80,80,80h34
			c44.1,0,80-35.9,80-80c0-11-9-20-20-20s-20,9-20,20c0,22.1-17.9,40-40,40h-34c-22.1,0-40-17.9-40-40V80c0-22.1,17.9-40,40-40h34
			c22.1,0,40,17.9,40,40v252C462.5,343,471.5,352,482.5,352z"/>
	</g>
</g>
</svg>
